<?xml version="1.0" encoding="UTF-8"?>
<svg width="26px" height="19px" viewBox="0 0 26 19" version="1.1" xmlns="http://www.w3.org/2000/svg" xmlns:xlink="http://www.w3.org/1999/xlink">
    <!-- Generator: sketchtool 39 (31667) - http://www.bohemiancoding.com/sketch -->
    <title>C5DB637C-3D89-4A8C-94FE-CA86950D36D0</title>
    <desc>Created with sketchtool.</desc>
    <defs></defs>
    <g id="Web" stroke="none" stroke-width="1" fill="none" fill-rule="evenodd">
        <g id="Profile-Expanded" transform="translate(-380.000000, -355.000000)" fill="#B7BFCA">
            <g id="Group-8" transform="translate(337.000000, 355.000000)">
                <g id="icon_handshake" transform="translate(43.000000, 0.000000)">
                    <g id="Group">
                        <path d="M25.9669924,2.43439218 L25.9669924,10.3526422 C25.9669924,10.3526422 24.2847204,10.6863297 23.9383375,10.7303991 C23.5926751,10.7742047 22.5069622,11.127288 21.7202821,10.3655068 C20.506665,9.19397204 16.1955113,4.87483662 16.1955113,4.87483662 C16.1955113,4.87483662 15.4520554,4.14016996 14.2586751,4.7751526 C13.1629421,5.3570276 11.5387607,6.20952065 10.860534,6.5414269 C9.57808564,7.2289894 8.51516373,6.13813871 8.51516373,5.30702065 C8.51516373,4.66253801 8.91446348,4.22520815 9.48521914,3.90332968 C11.0319244,2.95880537 14.292403,1.11521162 15.6503627,0.388461623 C16.4756171,-0.0537501828 17.0704081,-0.0916182383 18.203471,0.869860928 C19.5992846,2.05247898 20.8412594,3.13020121 20.8412594,3.13020121 C20.8412594,3.13020121 21.2462569,3.47061787 21.8924584,3.3335276 C23.4788514,2.99568385 25.9669924,2.43439218 25.9669924,2.43439218 L25.9669924,2.43439218 Z M8.80705793,15.8509651 C9.0160403,15.3105866 8.9462267,14.7062811 8.5458136,14.2916457 C8.18613602,13.9207498 7.66096222,13.8231109 7.16028212,13.9385623 C7.30049874,13.4383609 7.22295718,12.9059651 6.86151134,12.5301873 C6.50078589,12.1601491 5.97659446,12.0603991 5.47591436,12.17717 C5.61482116,11.6776943 5.53786902,11.1450345 5.17583375,10.7705762 C4.60920403,10.1850727 3.62939043,10.2100762 2.98548111,10.8283019 C2.3451738,11.4473193 1.93480605,12.568847 2.50634761,13.229097 C3.07703778,13.8859825 3.73273552,13.4863227 4.23262972,13.371597 C4.09346096,13.8710727 3.67674055,14.3357151 4.18992947,14.9897637 C4.70259446,15.6438123 5.41605542,15.2469234 5.91647355,15.1332533 C5.77704282,15.6308818 5.37846348,16.1421665 5.87193955,16.7483193 C6.36980353,17.3565172 7.18510327,17.0325276 7.72363728,16.8640345 C7.51589924,17.4023679 7.07101763,17.9824616 7.6424937,18.6326179 C8.21324937,19.287722 9.53204534,18.9846457 10.1762166,18.3656283 C10.8185542,17.746413 10.8802469,16.7653401 10.3151234,16.1782533 C9.92499244,15.775229 9.34349622,15.6814165 8.80705793,15.8509651 L8.80705793,15.8509651 Z M20.5611537,11.7315936 C15.904403,7.04057273 18.0947557,9.24780537 15.58867,6.71796857 C15.58867,6.71796857 14.8355214,5.9626526 13.842937,6.40149982 C13.1460453,6.70893037 12.2491436,7.12824982 11.5740605,7.44828107 C10.8321108,7.84002412 10.2984887,7.96134704 10.0477884,7.95982968 C8.61385894,7.95026371 7.45040806,6.78935051 7.45040806,5.34620815 C7.45040806,4.40993037 7.94362217,3.59484357 8.67961209,3.13224635 C9.71443829,2.41097204 12.0961562,1.13480537 12.0961562,1.13480537 C12.0961562,1.13480537 11.3706448,0.208621345 9.78097733,0.208621345 C8.19203023,0.208621345 4.87221662,2.39936093 4.87221662,2.39936093 C4.87221662,2.39936093 3.93025693,3.00729496 2.58768766,2.45992343 L0,1.55201371 L0,10.6129026 C0,10.6129026 0.738806045,10.8283019 1.40295214,11.1014929 C1.55286146,10.6706283 1.79458942,10.2729477 2.13023174,9.94440607 C3.23185894,8.88753107 5.05742569,8.87651371 6.05970277,9.91603801 C6.36161713,10.231979 6.57217128,10.6090102 6.67957683,11.0254929 C7.08352645,11.1512359 7.44909824,11.3736283 7.74302267,11.6784859 C8.0459194,11.9923818 8.25575315,12.3714582 8.36420655,12.7860936 C8.76763224,12.9118366 9.1326801,13.1350207 9.42765239,13.4401422 C9.7596927,13.7852429 9.98098741,14.2019234 10.0843325,14.6534373 C10.5059647,14.7771352 10.8868615,15.0075102 11.1938841,15.3234512 C11.7960756,15.9465588 12.0099698,16.7921248 11.8802317,17.6074755 C11.8815416,17.6074755 11.8833098,17.6074755 11.8843577,17.6093227 C11.8940504,17.6224512 12.2575919,18.0303575 12.483995,18.2605345 C12.9280907,18.7081561 13.6528816,18.7081561 14.0982872,18.2605345 C14.5408111,17.812913 14.5426448,17.0841179 14.0982872,16.6343852 C14.0823728,16.61842 12.4965038,14.9474755 12.6242116,14.8178401 C12.750806,14.6892602 14.7713401,16.8068366 14.808932,16.8456943 C15.2523073,17.2923262 15.9767708,17.2923262 16.4221763,16.8456943 C16.866534,16.3980727 16.8654861,15.6692776 16.4221763,15.2206665 C16.4004332,15.1997533 16.309335,15.1118783 16.275869,15.076847 C16.275869,15.076847 14.2724937,13.2793679 14.4249572,13.1257845 C14.5791889,12.9711457 17.0675919,15.3103227 17.0717179,15.3103227 C17.5188917,15.7161838 18.2078589,15.7130832 18.638136,15.2793818 C19.0568866,14.8578193 19.0658589,14.1905762 18.6946549,13.7411734 C18.6867305,13.7172255 16.7982267,11.7292845 16.9455819,11.5795276 C17.0952292,11.4279894 18.9637582,13.3661873 18.9678841,13.3703436 C19.4102116,13.8169095 20.1357229,13.8169095 20.5811285,13.3703436 C21.0244383,12.9237116 21.0244383,12.1939269 20.5811285,11.7432047 C20.5749723,11.7393123 20.5670479,11.73542 20.5611537,11.7315936 L20.5611537,11.7315936 Z" id="hand-shake"></path>
                    </g>
                </g>
            </g>
        </g>
    </g>
</svg>