<?xml version="1.0" encoding="utf-8"?>
<!-- Generator: Adobe Illustrator 20.0.0, SVG Export Plug-In . SVG Version: 6.00 Build 0)  -->
<svg version="1.0" id="Layer_1" xmlns="http://www.w3.org/2000/svg" xmlns:xlink="http://www.w3.org/1999/xlink" x="0px" y="0px"
	 viewBox="0 0 16 16" style="enable-background:new 0 0 16 16;" xml:space="preserve">
<path style="fill:#B7BFCA;" d="M14,6h-1.7c-0.2,0-0.4-0.1-0.6-0.2l-1.3-1.3C10.2,4.2,9.8,4,9.3,4H9c1.1,0,2-0.9,2-2s-0.9-2-2-2
	S7,0.9,7,2c0,0.7,0.4,1.4,1,1.7L7.8,4h-2c-1.1,0-2.3,0.5-3,1.5L2.2,6.3C1.8,6.7,2,7.3,2.4,7.6c0.4,0.2,0.9,0.1,1.2-0.3l0.5-0.7
	C4.4,6.2,4.8,6,5.3,6h0.8L5.4,7.6C5.1,8.2,5,8.8,5,9.5v2C5,11.8,4.8,12,4.5,12H2c-0.6,0-1,0.4-1,1s0.4,1,1,1h3.5
	C6.3,14,7,13.3,7,12.5V10l3.8,4.5c0.6,0.9,1.7,1.5,2.8,1.5h0.9L9.1,9.3C8.8,8.9,8.9,8.5,9.1,8l0.6-1.5l0.7,0.8C10.8,7.7,11.4,8,12,8
	h2c0.6,0,1-0.4,1-1S14.6,6,14,6z"/>
</svg>
