<?xml version="1.0" encoding="UTF-8"?>
<svg width="21px" height="19px" viewBox="0 0 21 19" version="1.1" xmlns="http://www.w3.org/2000/svg" xmlns:xlink="http://www.w3.org/1999/xlink">
    <!-- Generator: sketchtool 39 (31667) - http://www.bohemiancoding.com/sketch -->
    <title>6B0638C4-E056-456E-9692-8A6550FF759F</title>
    <desc>Created with sketchtool.</desc>
    <defs></defs>
    <g id="Web" stroke="none" stroke-width="1" fill="none" fill-rule="evenodd">
        <g id="Profile-Expanded" transform="translate(-337.000000, -355.000000)" fill="#B7BFCA">
            <g id="Group-8" transform="translate(337.000000, 355.000000)">
                <g id="icon_house">
                    <g id="home-icon-silhouette">
                        <path d="M20.6119496,8.64115903 L17.4348665,5.56515633 L17.4348665,2.01169542 C17.4348665,1.36933154 16.8972242,0.848598383 16.232471,0.848598383 C15.5694106,0.848598383 15.0317683,1.36933154 15.0317683,2.01169542 L15.0317683,3.23839892 L12.666068,0.948002695 C11.4963627,-0.183649596 9.46274811,-0.181652291 8.29589924,0.95 L0.351657431,8.64115903 C-0.117166247,9.09608356 -0.117166247,9.83226954 0.351657431,10.2863747 C0.820957179,10.7412992 1.58277582,10.7412992 2.0515995,10.2863747 L9.99499496,2.59521563 C10.2539244,2.34596226 10.7099471,2.34596226 10.9673955,2.59444744 L18.9120076,10.2863747 C19.1477683,10.5138113 19.4548338,10.6270431 19.7618992,10.6270431 C20.0695466,10.6270431 20.3772469,10.5138113 20.6121612,10.2863747 C21.0811965,9.83226954 21.0811965,9.09608356 20.6119496,8.64115903 Z M10.8992116,4.80321024 C10.6684232,4.57992183 10.2948136,4.57992183 10.0646599,4.80321024 L3.07689673,11.5664933 C2.96655416,11.6731186 2.90413602,11.818973 2.90413602,11.970973 L2.90413602,16.9040593 C2.90413602,18.0615229 3.87346851,18.9999488 5.06898741,18.9999488 L8.52853904,18.9999488 L8.52853904,13.8126415 L12.4344332,13.8126415 L12.4344332,18.9999488 L15.8942494,18.9999488 C17.0897683,18.9999488 18.0590479,18.0615229 18.0590479,16.9040593 L18.0590479,11.970973 C18.0590479,11.818973 17.9970529,11.6731186 17.8863401,11.5664933 L10.8992116,4.80321024 Z" id="Combined-Shape"></path>
                    </g>
                </g>
            </g>
        </g>
    </g>
</svg>