<?xml version="1.0" encoding="UTF-8"?>
<svg width="20px" height="22px" viewBox="0 0 20 22" version="1.1" xmlns="http://www.w3.org/2000/svg" xmlns:xlink="http://www.w3.org/1999/xlink">
    <!-- Generator: sketchtool 39 (31667) - http://www.bohemiancoding.com/sketch -->
    <title>9F1B20FE-BCED-4A48-A89B-1C3CABF7852E</title>
    <desc>Created with sketchtool.</desc>
    <defs></defs>
    <g id="Web" stroke="none" stroke-width="1" fill="none" fill-rule="evenodd">
        <g id="Profile-Expanded" transform="translate(-31.000000, -588.000000)" fill="#B7BFCA">
            <g id="Group-6" transform="translate(30.000000, 500.000000)">
                <g id="icon_drink" transform="translate(1.000000, 88.000000)">
                    <g id="Fill-1">
                        <path d="M19.04352,5.57120488 L16.4478933,5.57120488 L16.7797867,1.88738537 L19.0433067,1.88738537 C19.5554133,1.88738537 19.9706133,1.46965366 19.9706133,0.954478049 C19.9706133,0.43924878 19.5556267,0.0215170732 19.04352,0.0215170732 L15.9326933,0.0215170732 C15.4529067,0.0215170732 15.05248,0.389560976 15.0091733,0.870180488 L14.5858133,5.57120488 L11.2583467,5.57120488 C10.8144,2.86939024 8.47648,0.802517073 5.66730667,0.802517073 C2.54229333,0.802517073 0,3.36025854 0,6.50432683 C0,9.43483415 2.23018667,11.9580195 5.24773333,12.1877317 C5.36645333,13.5019366 5.54645333,15.5024341 5.94688,19.9510488 C6.05312,21.1191415 7.01168,21.9998927 8.17648,21.9998927 L16.5344,21.9998927 C17.7,21.9998927 18.6583467,21.1187659 18.76352,19.9501902 C19.7122667,9.41739512 19.33936,13.5589756 19.9670933,6.58819512 C20.0162667,6.04216585 19.5885333,5.57120488 19.04352,5.57120488 L19.04352,5.57120488 Z M5.66730667,5.57120488 C5.12042667,5.57120488 4.69477333,6.04511707 4.74373333,6.58840976 C4.87877333,8.08725366 4.8096,7.31988293 5.07728,10.295839 C3.23226667,10.0112341 1.85456,8.39289268 1.85456,6.50432683 C1.85456,4.389 3.56501333,2.66838537 5.66730667,2.66838537 C7.44981333,2.66838537 8.95061333,3.90526829 9.36581333,5.57120488 L5.66730667,5.57120488 Z M17.7631467,10.3838927 L6.94752,10.3838927 C6.91146667,9.9826878 6.71877333,7.84160488 6.68229333,7.4372878 C6.86666667,7.4372878 17.5287467,7.43707317 18.0285333,7.43707317 L17.7631467,10.3838927 Z"></path>
                    </g>
                </g>
            </g>
        </g>
    </g>
</svg>