<?xml version="1.0" encoding="UTF-8"?>
<svg width="22px" height="20px" viewBox="0 0 22 20" version="1.1" xmlns="http://www.w3.org/2000/svg" xmlns:xlink="http://www.w3.org/1999/xlink">
    <!-- Generator: sketchtool 39 (31667) - http://www.bohemiancoding.com/sketch -->
    <title>A64FEFFA-1949-4AF9-AD35-8865FD9A4CB9</title>
    <desc>Created with sketchtool.</desc>
    <defs></defs>
    <g id="Web" stroke="none" stroke-width="1" fill="none" fill-rule="evenodd">
        <g id="Profile-Expanded" transform="translate(-428.000000, -355.000000)" fill="#B7BFCA">
            <g id="Group-8" transform="translate(337.000000, 355.000000)">
                <g id="icon_medical" transform="translate(91.000000, 0.000000)">
                    <g id="Group">
                        <path d="M20.8661081,4.99518416 L15.6972973,4.99518416 L15.6972973,1.37168313 C15.6972973,0.725018519 15.2150811,0.19612963 14.5875459,0.19612963 L7.54718919,0.19612963 C6.91965405,0.19612963 6.37429189,0.725018519 6.37429189,1.37168313 L6.37429189,4.99518416 L1.17337297,4.99518416 C0.542508108,4.99518416 0,5.52174691 0,6.17073765 L0,18.413536 C0,19.0625267 0.542508108,19.5884774 1.17337297,19.5884774 L20.8661081,19.5884774 C21.496973,19.5884774 21.9763351,19.0625267 21.9763351,18.413536 L21.9763351,6.17073765 C21.9763351,5.52174691 21.496973,4.99518416 20.8661081,4.99518416 L20.8661081,4.99518416 Z M7.89597838,4.99518416 L14.1750162,4.99518416 L14.1750162,1.76333025 L7.89597838,1.76333025 L7.89597838,4.99518416 Z M14.9364541,13.9080638 L12.5580757,13.9080638 L12.5580757,16.3566235 L9.41825946,16.3566235 L9.41825946,13.9080638 L7.03988108,13.9080638 L7.03988108,10.6762099 L9.41825946,10.6762099 L9.41825946,8.22765021 L12.5580757,8.22765021 L12.5580757,10.6762099 L14.9364541,10.6762099 L14.9364541,13.9080638 Z" id="medical"></path>
                    </g>
                </g>
            </g>
        </g>
    </g>
</svg>