<?xml version="1.0" encoding="UTF-8"?>
<svg width="24px" height="24px" viewBox="0 0 24 24" version="1.1" xmlns="http://www.w3.org/2000/svg" xmlns:xlink="http://www.w3.org/1999/xlink">
    <!-- Generator: sketchtool 39 (31667) - http://www.bohemiancoding.com/sketch -->
    <title>273B9CCF-48AB-4319-8CC6-B64DD2B2E802</title>
    <desc>Created with sketchtool.</desc>
    <defs></defs>
    <g id="Symbols" stroke="none" stroke-width="1" fill="none" fill-rule="evenodd">
        <g id="My-Location" transform="translate(-18.000000, -18.000000)" fill="#B7BFCA">
            <g id="icon_my-location">
                <g transform="translate(18.000000, 18.000000)">
                    <path d="M12,7.63636364 C9.58909091,7.63636364 7.63636364,9.58909091 7.63636364,12 C7.63636364,14.4109091 9.58909091,16.3636364 12,16.3636364 C14.4109091,16.3636364 16.3636364,14.4109091 16.3636364,12 C16.3636364,9.58909091 14.4109091,7.63636364 12,7.63636364 L12,7.63636364 Z M21.7527273,10.9090909 C21.2509091,6.36 17.64,2.74909091 13.0909091,2.24727273 L13.0909091,0 L10.9090909,0 L10.9090909,2.24727273 C6.36,2.74909091 2.74909091,6.36 2.24727273,10.9090909 L0,10.9090909 L0,13.0909091 L2.24727273,13.0909091 C2.74909091,17.64 6.36,21.2509091 10.9090909,21.7527273 L10.9090909,24 L13.0909091,24 L13.0909091,21.7527273 C17.64,21.2509091 21.2509091,17.64 21.7527273,13.0909091 L24,13.0909091 L24,10.9090909 L21.7527273,10.9090909 L21.7527273,10.9090909 Z M12,19.6363636 C7.77818182,19.6363636 4.36363636,16.2218182 4.36363636,12 C4.36363636,7.77818182 7.77818182,4.36363636 12,4.36363636 C16.2218182,4.36363636 19.6363636,7.77818182 19.6363636,12 C19.6363636,16.2218182 16.2218182,19.6363636 12,19.6363636 L12,19.6363636 Z" id="Shape"></path>
                </g>
            </g>
        </g>
    </g>
</svg>