<?xml version="1.0" encoding="UTF-8"?>
<svg width="16px" height="21px" viewBox="0 0 16 21" version="1.1" xmlns="http://www.w3.org/2000/svg" xmlns:xlink="http://www.w3.org/1999/xlink">
    <!-- Generator: sketchtool 39 (31667) - http://www.bohemiancoding.com/sketch -->
    <title>15C44B16-C836-49B9-BFE4-BFAAF0172E79</title>
    <desc>Created with sketchtool.</desc>
    <defs></defs>
    <g id="Symbols" stroke="none" stroke-width="1" fill="none" fill-rule="evenodd">
        <g id="Navigation-Active" transform="translate(-150.000000, -30.000000)" fill="#47CCB0">
            <g id="icon_explore-active" transform="translate(150.000000, 30.000000)">
                <path d="M8,9.84374814 C6.89533333,9.84374814 6,8.96240456 6,7.87499851 C6,6.78759247 6.89533333,5.90624888 8,5.90624888 C9.10466667,5.90624888 10,6.78759247 10,7.87499851 C10,8.96240456 9.10466667,9.84374814 8,9.84374814 M8,4.59374913 C6.15933333,4.59374913 4.66666667,6.06243635 4.66666667,7.87499851 C4.66666667,9.68756067 6.15933333,11.1562479 8,11.1562479 C9.84066667,11.1562479 11.3333333,9.68756067 11.3333333,7.87499851 C11.3333333,6.06243635 9.84066667,4.59374913 8,4.59374913 M8,19.0312464 C6.89133333,19.0371527 1.33333333,10.6187792 1.33333333,7.87499851 C1.33333333,4.2511867 4.318,1.31249975 8,1.31249975 C11.682,1.31249975 14.6666667,4.2511867 14.6666667,7.87499851 C14.6666667,10.5820292 9.09133333,19.0371527 8,19.0312464 M8,0 C3.582,0 0,3.52603058 0,7.87499851 C0,11.1680604 6.67,21.0072148 8,20.999996 C9.30933333,21.0072148 16,11.1234354 16,7.87499851 C16,3.52603058 12.418,0 8,0" id="Fill-1"></path>
            </g>
        </g>
    </g>
</svg>