<?xml version="1.0" encoding="UTF-8"?>
<svg width="24px" height="24px" viewBox="0 0 24 24" version="1.1" xmlns="http://www.w3.org/2000/svg" xmlns:xlink="http://www.w3.org/1999/xlink">
    <!-- Generator: sketchtool 39 (31667) - http://www.bohemiancoding.com/sketch -->
    <title>9FB41D36-4EEE-49D1-93DA-68781BA099BB</title>
    <desc>Created with sketchtool.</desc>
    <defs></defs>
    <g id="Symbols" stroke="none" stroke-width="1" fill="none" fill-rule="evenodd">
        <g id="Search" transform="translate(-341.000000, -18.000000)" fill="#B7BFCA">
            <g id="icon_search-grey">
                <g transform="translate(341.000000, 18.000000)">
                    <path d="M18.0771096,9.99981813 C18.0771096,14.2948077 14.5235209,17.789579 10.1551891,17.789579 C5.78758487,17.789579 2.23399612,14.2948077 2.23399612,9.99981813 C2.23399612,5.70482859 5.78758487,2.21005729 10.1551891,2.21005729 C14.5235209,2.21005729 18.0771096,5.70482859 18.0771096,9.99981813 M23.6704656,22.1122124 L17.9090689,16.4408475 C19.4599903,14.6338092 20.3103783,12.3597345 20.3103783,9.99981813 C20.3103783,4.48558698 15.7550921,0 10.1551891,0 C4.55601358,0 0,4.48558698 0,9.99981813 C0,15.5133218 4.55601358,19.9989088 10.1551891,19.9989088 C12.3659069,19.9989088 14.5307953,19.2794398 16.2890398,17.9648995 L22.0955383,23.6791852 C22.3130456,23.8930617 22.5982056,24 22.8833657,24 C23.1685257,24 23.4536857,23.8930617 23.6704656,23.6791852 C23.8828807,23.470401 24,23.192507 24,22.8964263 C24,22.5988906 23.8828807,22.3209966 23.6704656,22.1122124" id="Fill-1"></path>
                </g>
            </g>
        </g>
    </g>
</svg>