<?xml version="1.0" encoding="UTF-8"?>
<svg width="21px" height="21px" viewBox="0 0 21 21" version="1.1" xmlns="http://www.w3.org/2000/svg" xmlns:xlink="http://www.w3.org/1999/xlink">
    <!-- Generator: sketchtool 39 (31667) - http://www.bohemiancoding.com/sketch -->
    <title>FC3C4A4B-7912-49FC-BFE4-997FD5ED6A9A</title>
    <desc>Created with sketchtool.</desc>
    <defs></defs>
    <g id="Web" stroke="none" stroke-width="1" fill="none" fill-rule="evenodd">
        <g id="Profile-Expanded" transform="translate(-429.000000, -590.000000)" fill="#B7BFCA">
            <g id="Group-6" transform="translate(30.000000, 500.000000)">
                <g id="icon-save-copy" transform="translate(399.000000, 90.000000)">
                    <path d="M10.5,19.6875 C5.425875,19.6875 1.3125,15.5728125 1.3125,10.5 C1.3125,5.4271875 5.425875,1.3125 10.5,1.3125 C15.574125,1.3125 19.6875,5.4271875 19.6875,10.5 C19.6875,15.5728125 15.574125,19.6875 10.5,19.6875 L10.5,19.6875 Z M10.5,0 C4.70071875,0 0,4.69875 0,10.5 C0,16.30125 4.70071875,21 10.5,21 C16.2992812,21 21,16.30125 21,10.5 C21,4.69875 16.2992812,0 10.5,0 L10.5,0 Z M14.4375,9.84375 L11.15625,9.84375 L11.15625,6.5625 C11.15625,6.2015625 10.8629062,5.90625 10.5,5.90625 C10.1370938,5.90625 9.84375,6.2015625 9.84375,6.5625 L9.84375,9.84375 L6.5625,9.84375 C6.19959375,9.84375 5.90625,10.1390625 5.90625,10.5 C5.90625,10.8609375 6.19959375,11.15625 6.5625,11.15625 L9.84375,11.15625 L9.84375,14.4375 C9.84375,14.7984375 10.1370938,15.09375 10.5,15.09375 C10.8629062,15.09375 11.15625,14.7984375 11.15625,14.4375 L11.15625,11.15625 L14.4375,11.15625 C14.8004062,11.15625 15.09375,10.8609375 15.09375,10.5 C15.09375,10.1390625 14.8004062,9.84375 14.4375,9.84375 L14.4375,9.84375 Z" id="Fill-25"></path>
                </g>
            </g>
        </g>
    </g>
</svg>