<?xml version="1.0" encoding="UTF-8"?>
<svg width="21px" height="21px" viewBox="0 0 21 21" version="1.1" xmlns="http://www.w3.org/2000/svg" xmlns:xlink="http://www.w3.org/1999/xlink">
    <!-- Generator: sketchtool 39 (31667) - http://www.bohemiancoding.com/sketch -->
    <title>EF07A2C5-BBFF-4A93-9510-590DB0BFE650</title>
    <desc>Created with sketchtool.</desc>
    <defs></defs>
    <g id="Web" stroke="none" stroke-width="1" fill="none" fill-rule="evenodd">
        <g id="Profile-Expanded" transform="translate(-30.000000, -549.000000)" fill="#B7BFCA">
            <g id="Group-6" transform="translate(30.000000, 500.000000)">
                <g id="icon_dine" transform="translate(0.000000, 49.000000)">
                    <g id="restaurant">
                        <path d="M6.650625,13.1024464 C6.56142857,13.11 6.4725,13.1139643 6.38335714,13.1139643 C6.13939286,13.1139643 5.90207143,13.0783929 5.66978571,13.0246071 L0.292982143,18.401625 C0.028875,18.6650893 0.028875,19.0932857 0.292982143,19.3569107 L1.68433929,20.74875 C1.94844643,21.0124286 2.376,21.0124286 2.63903571,20.74875 L9.10130357,14.2877143 L7.90366071,12.9955179 L6.650625,13.1024464 Z M20.8005536,4.488375 C20.5481786,4.23621429 20.1396964,4.23621429 19.8875357,4.488375 L16.4030893,7.97282143 C16.0733036,8.30196429 15.53925,8.30196429 15.2096786,7.97282143 C14.8813393,7.643625 14.8813393,7.11 15.2096786,6.78101786 L18.6767679,3.31457143 C18.9387321,3.05239286 18.9387321,2.62714286 18.6767679,2.36453571 C18.4135179,2.10251786 17.9886964,2.10251786 17.7266786,2.36453571 L14.2610893,5.83055357 C13.9313036,6.16033929 13.3978929,6.16033929 13.0681071,5.83055357 C12.739125,5.501625 12.739125,4.96757143 13.0681071,4.63880357 L16.5519107,1.155 C16.804875,0.902196429 16.804875,0.493071429 16.5519107,0.240107143 C16.2995357,-0.0124821429 15.8904107,-0.0124821429 15.6373929,0.240107143 L11.7176786,4.16003571 C10.7754107,5.10294643 10.4776071,6.42675 10.7826964,7.63108929 L13.4102143,10.2587679 C14.6147679,10.5628393 15.9389464,10.2650893 16.88025,9.32276786 L20.8003393,5.40326786 C21.0535714,5.15046429 21.0535714,4.74091071 20.8005536,4.488375 Z M1.76116071,0.594375 C1.62680357,0.460017857 1.44519643,0.386357143 1.25871429,0.386357143 C1.21896429,0.386357143 1.179,0.389732143 1.14005357,0.396428571 C0.913232143,0.434732143 0.718392857,0.580339286 0.618375,0.787714286 C-0.529660714,3.16076786 -0.0498214286,6.00048214 1.813875,7.86439286 L5.14832143,11.1981964 C5.47725,11.5275536 5.92194643,11.7098036 6.38335714,11.7098036 C6.43275,11.7098036 6.48214286,11.7079286 6.53153571,11.70375 L8.46744643,11.5386429 L16.9089107,20.6451429 C17.0401071,20.7868393 17.2236429,20.8690714 17.4169821,20.8728214 L17.4293571,20.8728214 C17.6185179,20.8728214 17.7995357,20.7981429 17.9338929,20.6648036 L19.3796786,19.2185893 C19.5131786,19.0855179 19.5879107,18.9045 19.5879107,18.7159821 C19.5879107,18.5274107 19.5131786,18.3463929 19.3801071,18.2131071 L1.76116071,0.594375 Z" id="Combined-Shape"></path>
                    </g>
                </g>
            </g>
        </g>
    </g>
</svg>