<?xml version="1.0" encoding="UTF-8"?>
<svg width="21px" height="21px" viewBox="0 0 21 21" version="1.1" xmlns="http://www.w3.org/2000/svg" xmlns:xlink="http://www.w3.org/1999/xlink">
    <!-- Generator: sketchtool 39 (31667) - http://www.bohemiancoding.com/sketch -->
    <title>F1364557-6F40-4A8E-BDF1-BB24B6CCC288</title>
    <desc>Created with sketchtool.</desc>
    <defs></defs>
    <g id="Symbols" stroke="none" stroke-width="1" fill="none" fill-rule="evenodd">
        <g id="Navigation" transform="translate(-363.000000, -30.000000)" fill="#9298A0">
            <g id="icon_messages" transform="translate(363.000000, 30.000000)">
                <path d="M1.3125,7.546875 C1.3125,4.1041875 4.43165625,1.3125 8.53125,1.3125 C11.7947812,1.3125 15.09375,4.1041875 15.09375,7.546875 C15.09375,10.9902188 12.5179687,13.78125 8.53125,13.78125 C7.94521875,13.78125 6.722625,13.7143125 6.17728125,13.6007813 L3.9375,15.09375 L3.9375,12.768 C2.33690625,11.4692812 1.3125,9.7348125 1.3125,7.546875 L1.3125,7.546875 Z M6.32428125,14.9205 C6.8341875,15.0038437 7.99378125,15.09375 8.53125,15.09375 C13.243125,15.09375 16.40625,11.5874062 16.40625,7.46484375 C16.40625,3.34228125 12.4536562,0 8.53125,0 C3.81346875,0 0,3.34228125 0,7.46484375 C0,9.85359375 0.91021875,11.8814062 2.625,13.3409062 L2.625,17.0625 L6.32428125,14.9205 Z M17.6852812,5.99746875 C17.69775,6.18515625 17.71875,6.37153125 17.71875,6.5625 C17.71875,6.979875 17.6780625,7.38871875 17.6196562,7.7923125 C18.5029688,8.8265625 19.03125,10.101 19.03125,11.484375 C19.03125,13.6723125 17.724,15.5931563 15.75,16.7055 L15.75,19.03125 L13.5102187,17.5382813 C12.964875,17.6518125 12.3985312,17.71875 11.8125,17.71875 C10.1128125,17.71875 9.2098125,17.2081875 7.9760625,16.3596563 C7.61840625,16.3885312 7.25746875,16.40625 6.890625,16.40625 C6.6294375,16.40625 6.3735,16.387875 6.11625,16.3727812 C7.67878125,17.899875 9.28528125,18.8671875 11.8125,18.8671875 C12.3499687,18.8671875 12.8743125,18.818625 13.3842187,18.7352812 L17.0625,21 L17.0625,17.2784062 C19.0575,15.9114375 20.34375,13.7910938 20.34375,11.4023438 C20.34375,9.27346875 19.3193437,7.35721875 17.6852812,5.99746875 L17.6852812,5.99746875 Z M12.140625,8.53125 C12.6846562,8.53125 13.125,8.09090625 13.125,7.546875 C13.125,7.0035 12.6846562,6.5625 12.140625,6.5625 C11.5965938,6.5625 11.15625,7.0035 11.15625,7.546875 C11.15625,8.09090625 11.5965938,8.53125 12.140625,8.53125 L12.140625,8.53125 Z M4.265625,8.53125 C4.80965625,8.53125 5.25,8.09090625 5.25,7.546875 C5.25,7.0035 4.80965625,6.5625 4.265625,6.5625 C3.72159375,6.5625 3.28125,7.0035 3.28125,7.546875 C3.28125,8.09090625 3.72159375,8.53125 4.265625,8.53125 L4.265625,8.53125 Z M8.203125,8.53125 C8.74715625,8.53125 9.1875,8.09090625 9.1875,7.546875 C9.1875,7.0035 8.74715625,6.5625 8.203125,6.5625 C7.65909375,6.5625 7.21875,7.0035 7.21875,7.546875 C7.21875,8.09090625 7.65909375,8.53125 8.203125,8.53125 L8.203125,8.53125 Z" id="Page-1"></path>
            </g>
        </g>
    </g>
</svg>