<?xml version="1.0" encoding="UTF-8"?>
<svg width="21px" height="21px" viewBox="0 0 21 21" version="1.1" xmlns="http://www.w3.org/2000/svg" xmlns:xlink="http://www.w3.org/1999/xlink">
    <!-- Generator: sketchtool 39 (31667) - http://www.bohemiancoding.com/sketch -->
    <title>D9170830-E01B-4059-A589-3045CF5AF273</title>
    <desc>Created with sketchtool.</desc>
    <defs></defs>
    <g id="Symbols" stroke="none" stroke-width="1" fill="none" fill-rule="evenodd">
        <g id="Navigation" transform="translate(-264.000000, -30.000000)" fill="#9298A0">
            <g id="icon_trips" transform="translate(264.000000, 30.000000)">
                <path d="M15.75,11.15625 C15.75,11.5191562 16.044,11.8125 16.40625,11.8125 C16.7685,11.8125 17.0625,11.5191562 17.0625,11.15625 L17.0625,5.90625 C17.0625,5.544 16.7685,5.25 16.40625,5.25 C16.044,5.25 15.75,5.544 15.75,5.90625 L15.75,11.15625 Z M19.6875,17.390625 L15.75,14.4375 L10.5,18.375 L5.25,16.40625 L1.3125,18.8671875 L1.3125,5.7421875 L5.25,3.28125 L10.5,5.25 L15.75,1.3125 L19.6875,4.265625 L19.6875,17.390625 Z M15.75,0 L10.5,3.9375 L5.25,1.96875 L0,5.25 L0,21 L5.25,17.71875 L10.5,19.6875 L15.75,15.75 L21,19.6875 L21,3.9375 L15.75,0 Z M11.15625,8.53125 C10.794,8.53125 10.5,8.82525 10.5,9.1875 L10.5,13.125 C10.5,13.4879063 10.794,13.78125 11.15625,13.78125 C11.5185,13.78125 11.8125,13.4879063 11.8125,13.125 L11.8125,9.1875 C11.8125,8.82525 11.5185,8.53125 11.15625,8.53125 L11.15625,8.53125 Z M5.90625,6.5625 C5.544,6.5625 5.25,6.8565 5.25,7.21875 L5.25,13.78125 C5.25,14.1441563 5.544,14.4375 5.90625,14.4375 C6.2685,14.4375 6.5625,14.1441563 6.5625,13.78125 L6.5625,7.21875 C6.5625,6.8565 6.2685,6.5625 5.90625,6.5625 L5.90625,6.5625 Z" id="Page-1"></path>
            </g>
        </g>
    </g>
</svg>