<?xml version="1.0" encoding="utf-8"?>
<!-- Generator: Adobe Illustrator 20.0.0, SVG Export Plug-In . SVG Version: 6.00 Build 0)  -->
<svg version="1.1" id="Layer_1" xmlns="http://www.w3.org/2000/svg" xmlns:xlink="http://www.w3.org/1999/xlink" x="0px" y="0px"
	 viewBox="0 0 68 35.3" style="enable-background:new 0 0 68 35.3;" xml:space="preserve">
<style type="text/css">
	.st0{fill:#47CCB0;}
	.st1{font-family:'Lato-Bold';}
	.st2{font-size:30px;}
	.st3{fill:#F38A1A;}
</style>
<title>2E7954D2-6FC2-4266-9AC7-3428E86871FC</title>
<desc>Created with sketchtool.</desc>
<g id="Symbols">
	<g id="Logo">
		<g id="logo">
			<text transform="matrix(1 0 0 1 0 35)" class="st0 st1 st2">trul</text>
			<g transform="translate(50.000000, 0.000000)">
				<path id="Combined-Shape" class="st3" d="M4.1,25.4c1.2-1.2,2.6-2.5,4.1-3.9c0.1-0.1,0.2-0.2,0.4-0.3c-1.1-1-2.3-1.9-3.3-2.8
					c0,0,0,0,0,0c-1.4,1.5-2.6,3-3.5,4.4C2.4,23.7,3.2,24.6,4.1,25.4z M16.4,22.9c-0.9-1.4-2.1-2.9-3.5-4.4c0,0-0.1-0.1-0.1-0.1
					c-1,0.9-2.2,1.8-3.3,2.8c0.1,0.1,0.2,0.2,0.4,0.3c1.5,1.3,3,2.7,4.2,3.8C14.9,24.5,15.7,23.7,16.4,22.9z M9,29.2
					c1.4-0.9,2.9-2,4.3-3.3c0.1-0.1,0.2-0.2,0.3-0.2c-1.2-1.1-2.6-2.4-4.1-3.7c-0.2-0.1-0.3-0.3-0.5-0.4c-0.2,0.1-0.3,0.3-0.5,0.4
					c-1.5,1.3-2.9,2.6-4,3.8c0.1,0.1,0.1,0.1,0.2,0.2C6.1,27.2,7.6,28.3,9,29.2z M17.9,20.9c-0.3-1.9-1-3.6-2.1-5
					c-0.8,0.6-1.6,1.3-2.6,2.1c0,0,0.1,0.1,0.1,0.1c1.4,1.4,2.6,2.9,3.5,4.3C17.2,21.9,17.6,21.4,17.9,20.9z M2.5,15.6
					c0.8,0.5,1.7,1.2,2.7,2c1.1-1.1,2.2-2.2,3.4-3c-0.7-0.5-1.3-1-2-1.4C4.9,13.7,3.5,14.5,2.5,15.6z M12.8,17.6
					c1-0.8,1.9-1.5,2.6-2.1c-1-1.1-2.4-1.8-4-2.2c-0.6,0.4-1.3,0.8-2,1.3C10.6,15.5,11.7,16.5,12.8,17.6z M7.3,13.1
					c0.5,0.3,1.1,0.7,1.7,1.2c0.6-0.4,1.1-0.8,1.7-1.2C10.2,13,9.6,13,9,13C8.4,13,7.9,13,7.3,13.1z M5.6,18
					c1.1,0.9,2.2,1.8,3.4,2.8c1.1-1,2.3-2,3.3-2.9c-1.1-1.1-2.2-2.1-3.3-3C7.9,15.9,6.7,16.9,5.6,18z M13.7,26.4
					c-1.3,1.2-2.8,2.3-4.2,3.2c1.2,0.7,2.4,1.3,3.4,1.7c1.4-0.6,2.5-1.5,3.3-2.7c-0.5-0.6-1.2-1.5-2.2-2.5
					C13.9,26.2,13.8,26.3,13.7,26.4z M4.3,26.4c-0.1-0.1-0.1-0.1-0.2-0.2c0,0,0,0,0,0c-1,1-1.7,1.8-2.2,2.4c0.8,1.1,1.9,2,3.2,2.6
					c1-0.4,2.2-0.9,3.4-1.7C7.1,28.6,5.7,27.6,4.3,26.4z M5.8,31.5c1,0.3,2,0.5,3.2,0.5c1.2,0,2.3-0.2,3.2-0.5
					c-1-0.4-2.1-0.9-3.2-1.6C7.9,30.5,6.8,31.1,5.8,31.5z M14.4,25.7c1,1,1.7,1.8,2.1,2.4c0.5-0.8,0.9-1.8,1.1-2.8
					c-0.3-0.6-0.6-1.2-1-1.9C16,24.1,15.2,24.9,14.4,25.7z M18,21.7c-0.2,0.2-0.3,0.5-0.5,0.7c-0.1,0.2-0.3,0.3-0.4,0.5
					c0.3,0.5,0.6,1,0.8,1.4c0.1-0.6,0.1-1.2,0.1-1.9C18,22.2,18,22,18,21.7z M4.8,18.1c-1-0.8-1.9-1.5-2.7-2c-1.1,1.3-1.7,3-2,4.8
					c0.3,0.5,0.7,1,1.2,1.6C2.2,21,3.4,19.5,4.8,18.1z M1.4,23.4c-0.4,0.7-0.8,1.3-1,1.9c0.3,1.1,0.7,2,1.3,2.9
					c0.5-0.6,1.2-1.4,2.1-2.4C2.9,25,2.1,24.2,1.4,23.4z M0.6,22.4c-0.2-0.2-0.4-0.5-0.5-0.7c0,0.3,0,0.5,0,0.8
					c0,0.7,0.1,1.3,0.2,1.9c0.2-0.5,0.5-1,0.8-1.5C0.8,22.8,0.7,22.6,0.6,22.4z"/>
				<path id="Fill-29" class="st0" d="M1,8.6C3.8,9.5,5.5,13,5.5,13c1.7-1.2,6.1-1.1,7.9,0c0,0,1.8-3.5,4.5-4.4c0,0-1.8-1.2-3.9-0.2
					c0,0,0.7-3.2,1.7-4.4c0,0-2.5,0-4.2,3.4c0,0-0.5-5.7-2.2-7.4C7.9,1.7,7.3,7.4,7.3,7.4C5.6,4,3.2,4,3.2,4c1,1.1,1.7,4.4,1.7,4.4
					C2.8,7.4,1,8.6,1,8.6"/>
			</g>
		</g>
	</g>
</g>
</svg>
