<svg xmlns="http://www.w3.org/2000/svg" xmlns:xlink="http://www.w3.org/1999/xlink" width="449" height="449" viewBox="0 0 449 449"><svg width="21" height="21" viewBox="0 0 21 21" id="icon-dine" y="0"><title>EF07A2C5-BBFF-4A93-9510-590DB0BFE650</title><path d="M6.65 13.102c-.089.008-.178.012-.267.012-.244 0-.48-.036-.713-.09L.293 18.403a.675.675 0 0 0 0 .955l1.391 1.392a.675.675 0 0 0 .955 0l6.462-6.461-1.197-1.292-1.253.106zM20.8 4.488a.646.646 0 0 0-.912 0l-3.485 3.485A.844.844 0 0 1 15.21 6.78l3.467-3.466a.672.672 0 0 0-.95-.95L14.26 5.83a.843.843 0 1 1-1.193-1.192l3.484-3.484a.646.646 0 1 0-.915-.915l-3.92 3.92c-.942.943-1.24 2.267-.934 3.471l2.627 2.628c1.205.304 2.529.006 3.47-.936l3.92-3.92a.646.646 0 0 0 0-.915zM1.762.594A.711.711 0 0 0 .618.788a6.194 6.194 0 0 0 1.196 7.076l3.334 3.334a1.745 1.745 0 0 0 1.384.506l1.935-.165 8.442 9.106a.711.711 0 0 0 .508.228h.012c.19 0 .37-.075.505-.208l1.446-1.446a.71.71 0 0 0 0-1.006L1.761.594z" fill="#B7BFCA" fill-rule="evenodd"></path></svg><svg width="20" height="22" viewBox="0 0 20 22" id="icon-drink" y="21"><title>9F1B20FE-BCED-4A48-A89B-1C3CABF7852E</title><path d="M19.044 5.571h-2.596l.332-3.684h2.263a.93.93 0 0 0 .928-.933.93.93 0 0 0-.927-.932h-3.111a.93.93 0 0 0-.924.848l-.423 4.701h-3.328C10.814 2.87 8.476.803 5.668.803 2.541.803 0 3.36 0 6.504c0 2.93 2.23 5.454 5.248 5.684l.699 7.763A2.234 2.234 0 0 0 8.177 22h8.357a2.233 2.233 0 0 0 2.23-2.05l1.203-13.362a.93.93 0 0 0-.923-1.017zm-13.377 0a.932.932 0 0 0-.923 1.017l.333 3.708c-1.845-.285-3.222-1.903-3.222-3.792 0-2.115 1.71-3.836 3.812-3.836 1.783 0 3.284 1.237 3.699 2.903H5.667zm12.096 4.813H6.948l-.266-2.947H18.03l-.266 2.947z" fill="#B7BFCA" fill-rule="evenodd"></path></svg><svg width="16" height="21" viewBox="0 0 16 21" id="icon-explore-active" y="43"><title>D69A19E7-BA9C-4E6F-BFDD-DB1C4CEBE121</title><path d="M8 9.844c-1.105 0-2-.882-2-1.969 0-1.087.895-1.969 2-1.969s2 .882 2 1.969c0 1.087-.895 1.969-2 1.969m0-5.25c-1.84 0-3.333 1.468-3.333 3.281 0 1.813 1.492 3.281 3.333 3.281 1.84 0 3.333-1.468 3.333-3.281 0-1.813-1.492-3.281-3.333-3.281M8 19.03c-1.109.006-6.667-8.412-6.667-11.156 0-3.624 2.985-6.563 6.667-6.563s6.667 2.94 6.667 6.563c0 2.707-5.576 11.162-6.667 11.156M8 0C3.582 0 0 3.526 0 7.875 0 11.168 6.67 21.007 8 21c1.31.007 8-9.877 8-13.125C16 3.526 12.418 0 8 0" fill="#9298A0" fill-rule="evenodd"></path></svg><svg width="16" height="21" viewBox="0 0 16 21" id="icon-explore-active_2" y="64"><title>15C44B16-C836-49B9-BFE4-BFAAF0172E79</title><path d="M8 9.844c-1.105 0-2-.882-2-1.969 0-1.087.895-1.969 2-1.969s2 .882 2 1.969c0 1.087-.895 1.969-2 1.969m0-5.25c-1.84 0-3.333 1.468-3.333 3.281 0 1.813 1.492 3.281 3.333 3.281 1.84 0 3.333-1.468 3.333-3.281 0-1.813-1.492-3.281-3.333-3.281M8 19.03c-1.109.006-6.667-8.412-6.667-11.156 0-3.624 2.985-6.563 6.667-6.563s6.667 2.94 6.667 6.563c0 2.707-5.576 11.162-6.667 11.156M8 0C3.582 0 0 3.526 0 7.875 0 11.168 6.67 21.007 8 21c1.31.007 8-9.877 8-13.125C16 3.526 12.418 0 8 0" fill="#47CCB0" fill-rule="evenodd"></path></svg><svg width="26" height="19" viewBox="0 0 26 19" id="icon-handshake" y="85"><title>C5DB637C-3D89-4A8C-94FE-CA86950D36D0</title><path d="M25.967 2.434v7.919s-1.682.333-2.029.377c-.345.044-1.431.397-2.218-.364-1.213-1.172-5.524-5.491-5.524-5.491s-.744-.735-1.937-.1c-1.096.582-2.72 1.435-3.398 1.766-1.283.688-2.346-.403-2.346-1.234 0-.644.4-1.082.97-1.404 1.547-.944 4.807-2.788 6.165-3.515.826-.442 1.42-.48 2.553.482a332.032 332.032 0 0 1 2.638 2.26s.405.34 1.051.204c1.587-.338 4.075-.9 4.075-.9zM8.807 15.851c.209-.54.14-1.145-.261-1.56-.36-.37-.885-.468-1.386-.352.14-.5.063-1.033-.298-1.409-.361-.37-.885-.47-1.386-.353.139-.5.062-1.032-.3-1.406-.567-.586-1.547-.56-2.19.057-.64.62-1.051 1.74-.48 2.401.571.657 1.227.257 1.727.143-.14.5-.556.964-.043 1.618.513.654 1.226.257 1.726.143-.139.498-.538 1.01-.044 1.615.498.609 1.313.285 1.852.116-.208.538-.653 1.118-.082 1.769.571.655 1.89.352 2.534-.267.643-.62.704-1.6.14-2.188-.391-.403-.973-.497-1.509-.327zm11.754-4.12c-4.657-4.69-2.466-2.483-4.972-5.013 0 0-.753-.755-1.746-.317-.697.308-1.594.727-2.269 1.047-.742.392-1.276.513-1.526.512A2.612 2.612 0 0 1 8.68 3.132c1.034-.721 3.416-1.997 3.416-1.997S11.371.209 9.781.209c-1.589 0-4.909 2.19-4.909 2.19s-.942.608-2.284.06L0 1.553v9.06s.739.216 1.403.49c.15-.431.392-.83.727-1.158 1.102-1.056 2.927-1.067 3.93-.028.302.316.512.693.62 1.11a2.509 2.509 0 0 1 1.684 1.76c.404.126.769.349 1.064.654.332.345.553.762.656 1.213.422.124.803.355 1.11.67.602.624.816 1.47.686 2.284a19.653 19.653 0 0 0 .604.653 1.138 1.138 0 0 0 1.614 0 1.16 1.16 0 0 0 0-1.626c-.016-.016-1.601-1.687-1.474-1.816s2.147 1.989 2.185 2.028a1.139 1.139 0 0 0 1.613 0 1.158 1.158 0 0 0 0-1.625 7.55 7.55 0 0 1-.146-.144s-2.004-1.798-1.851-1.951c.154-.155 2.643 2.184 2.647 2.184a1.132 1.132 0 0 0 1.566-.03 1.147 1.147 0 0 0 .057-1.539c-.008-.024-1.897-2.012-1.75-2.161.15-.152 2.019 1.786 2.023 1.79a1.139 1.139 0 0 0 1.613 0 1.162 1.162 0 0 0 0-1.627l-.02-.011z" fill="#B7BFCA" fill-rule="evenodd"></path></svg><svg width="21" height="19" viewBox="0 0 21 19" id="icon-house" y="104"><title>6B0638C4-E056-456E-9692-8A6550FF759F</title><path d="M20.612 8.641l-3.177-3.076V2.012c0-.643-.538-1.163-1.203-1.163-.663 0-1.2.52-1.2 1.163v1.226L12.666.948c-1.17-1.132-3.203-1.13-4.37.002L.352 8.641a1.138 1.138 0 0 0 0 1.645 1.23 1.23 0 0 0 1.7 0l7.943-7.69a.727.727 0 0 1 .972-.002l7.945 7.692c.236.228.543.341.85.341.308 0 .615-.113.85-.34a1.138 1.138 0 0 0 0-1.646zm-9.713-3.838a.604.604 0 0 0-.834 0l-6.988 6.763a.563.563 0 0 0-.173.405v4.933c0 1.158.97 2.096 2.165 2.096h3.46v-5.187h3.905V19h3.46c1.196 0 2.165-.938 2.165-2.096v-4.933a.561.561 0 0 0-.173-.405L10.9 4.803z" fill="#B7BFCA" fill-rule="evenodd"></path></svg><svg width="22" height="20" viewBox="0 0 22 20" id="icon-medical" y="123"><title>A64FEFFA-1949-4AF9-AD35-8865FD9A4CB9</title><path d="M20.866 4.995h-5.169V1.372c0-.647-.482-1.176-1.11-1.176h-7.04a1.19 1.19 0 0 0-1.173 1.176v3.623h-5.2C.542 4.995 0 5.522 0 6.171v12.243c0 .649.543 1.174 1.173 1.174h19.693c.631 0 1.11-.525 1.11-1.174V6.17c0-.65-.479-1.176-1.11-1.176zm-12.97 0h6.279V1.763H7.896v3.232zm7.04 8.913h-2.378v2.449h-3.14v-2.449H7.04v-3.232h2.378V8.228h3.14v2.448h2.378v3.232z" fill="#B7BFCA" fill-rule="evenodd"></path></svg><svg width="21" height="21" viewBox="0 0 21 21" id="icon-messages" y="143"><title>F1364557-6F40-4A8E-BDF1-BB24B6CCC288</title><path d="M1.313 7.547c0-3.443 3.119-6.234 7.218-6.234 3.264 0 6.563 2.791 6.563 6.234S12.518 13.78 8.53 13.78c-.586 0-1.808-.067-2.354-.18l-2.24 1.493v-2.326c-1.6-1.299-2.624-3.033-2.624-5.221zm5.011 7.374c.51.083 1.67.173 2.207.173 4.712 0 7.875-3.507 7.875-7.63C16.406 3.343 12.454 0 8.531 0 3.813 0 0 3.342 0 7.465c0 2.389.91 4.416 2.625 5.876v3.722l3.7-2.142zm11.361-8.924c.013.188.034.375.034.566 0 .417-.04.826-.1 1.23.884 1.034 1.412 2.308 1.412 3.691 0 2.188-1.307 4.11-3.281 5.222v2.325l-2.24-1.493a8.311 8.311 0 0 1-1.697.18c-1.7 0-2.603-.51-3.837-1.358a13.46 13.46 0 0 1-1.085.046c-.262 0-.518-.018-.775-.033 1.563 1.527 3.17 2.494 5.697 2.494a9.73 9.73 0 0 0 1.571-.132L17.062 21v-3.722c1.995-1.367 3.282-3.487 3.282-5.876 0-2.129-1.025-4.045-2.659-5.405zm-5.544 2.534a.984.984 0 1 0 0-1.968.984.984 0 0 0 0 1.968zm-7.875 0a.984.984 0 1 0 0-1.968.984.984 0 0 0 0 1.968zm3.937 0a.984.984 0 1 0 .001-1.968.984.984 0 0 0 0 1.968z" fill="#9298A0" fill-rule="evenodd"></path></svg><svg width="24" height="24" viewBox="0 0 24 24" id="icon-my-location" y="164"><title>273B9CCF-48AB-4319-8CC6-B64DD2B2E802</title><path d="M12 7.636A4.362 4.362 0 0 0 7.636 12 4.362 4.362 0 0 0 12 16.364 4.362 4.362 0 0 0 16.364 12 4.362 4.362 0 0 0 12 7.636zm9.753 3.273a9.812 9.812 0 0 0-8.662-8.662V0h-2.182v2.247a9.812 9.812 0 0 0-8.662 8.662H0v2.182h2.247a9.812 9.812 0 0 0 8.662 8.662V24h2.182v-2.247a9.812 9.812 0 0 0 8.662-8.662H24v-2.182h-2.247zM12 19.636A7.63 7.63 0 0 1 4.364 12 7.63 7.63 0 0 1 12 4.364 7.63 7.63 0 0 1 19.636 12 7.63 7.63 0 0 1 12 19.636z" fill="#B7BFCA" fill-rule="evenodd"></path></svg><svg width="21" height="21" viewBox="0 0 21 21" id="icon-save" y="188"><title>51E41E6D-7DEC-426B-9C67-E78D1CFA0395</title><path d="M10.5 19.688a9.188 9.188 0 1 1 .002-18.377 9.188 9.188 0 0 1-.002 18.377zM10.5 0C4.7 0 0 4.699 0 10.5S4.7 21 10.5 21 21 16.301 21 10.5 16.3 0 10.5 0zm3.938 9.844h-3.282V6.563a.657.657 0 0 0-1.312 0v3.28H6.563a.657.657 0 0 0 0 1.313h3.28v3.281a.657.657 0 0 0 1.313 0v-3.28h3.281a.657.657 0 0 0 0-1.313z" fill="#B7BFCA" fill-rule="evenodd"></path></svg><svg width="21" height="21" viewBox="0 0 21 21" id="icon-save-copy" y="209"><title>FC3C4A4B-7912-49FC-BFE4-997FD5ED6A9A</title><path d="M10.5 19.688a9.188 9.188 0 1 1 .002-18.377 9.188 9.188 0 0 1-.002 18.377zM10.5 0C4.7 0 0 4.699 0 10.5S4.7 21 10.5 21 21 16.301 21 10.5 16.3 0 10.5 0zm3.938 9.844h-3.282V6.563a.657.657 0 0 0-1.312 0v3.28H6.563a.657.657 0 0 0 0 1.313h3.28v3.281a.657.657 0 0 0 1.313 0v-3.28h3.281a.657.657 0 0 0 0-1.313z" fill="#B7BFCA" fill-rule="evenodd"></path></svg><svg width="21" height="21" viewBox="0 0 21 21" id="icon-save-copy-2" y="230"><title>54271387-FB5D-4282-8B2A-878A4258DAFC</title><path d="M10.5 19.688a9.188 9.188 0 1 1 .002-18.377 9.188 9.188 0 0 1-.002 18.377zM10.5 0C4.7 0 0 4.699 0 10.5S4.7 21 10.5 21 21 16.301 21 10.5 16.3 0 10.5 0zm3.938 9.844h-3.282V6.563a.657.657 0 0 0-1.312 0v3.28H6.563a.657.657 0 0 0 0 1.313h3.28v3.281a.657.657 0 0 0 1.313 0v-3.28h3.281a.657.657 0 0 0 0-1.313z" fill="#B7BFCA" fill-rule="evenodd"></path></svg><svg width="24" height="24" viewBox="0 0 24 24" id="icon-search-grey" y="251"><title>9FB41D36-4EEE-49D1-93DA-68781BA099BB</title><path d="M18.077 10c0 4.295-3.553 7.79-7.922 7.79-4.367 0-7.921-3.495-7.921-7.79s3.554-7.79 7.921-7.79c4.369 0 7.922 3.495 7.922 7.79m5.593 12.112l-5.76-5.671A9.876 9.876 0 0 0 20.31 10c0-5.514-4.555-10-10.155-10C4.556 0 0 4.486 0 10c0 5.513 4.556 9.999 10.155 9.999 2.21 0 4.376-.72 6.134-2.034l5.807 5.714c.217.214.502.321.787.321.286 0 .57-.107.787-.32a1.09 1.09 0 0 0 .33-.784 1.09 1.09 0 0 0-.33-.784" fill="#B7BFCA" fill-rule="evenodd"></path></svg><svg width="21" height="21" viewBox="0 0 21 21" id="icon-trips" y="275"><title>D9170830-E01B-4059-A589-3045CF5AF273</title><path d="M15.75 11.156a.656.656 0 1 0 1.313 0v-5.25a.656.656 0 0 0-1.313 0v5.25zm3.938 6.235l-3.938-2.953-5.25 3.937-5.25-1.969-3.938 2.461V5.742l3.938-2.46L10.5 5.25l5.25-3.938 3.938 2.954V17.39zM15.75 0L10.5 3.938l-5.25-1.97L0 5.25V21l5.25-3.281 5.25 1.968 5.25-3.937L21 19.688V3.938L15.75 0zm-4.594 8.531a.656.656 0 0 0-.656.656v3.938a.656.656 0 1 0 1.313 0V9.187a.656.656 0 0 0-.657-.656zm-5.25-1.969a.656.656 0 0 0-.656.657v6.562a.656.656 0 1 0 1.313 0V7.22a.656.656 0 0 0-.657-.657z" fill="#9298A0" fill-rule="evenodd"></path></svg><svg width="68" height="33" viewBox="0 0 68 33" id="logo" y="296"><title>2E7954D2-6FC2-4266-9AC7-3428E86871FC</title><g fill="none" fill-rule="evenodd"><text font-family="Lato-Bold, Lato" font-size="30" font-weight="bold" fill="#47CCB0"><tspan x="0" y="35">trul</tspan></text><g transform="translate(50)"><path d="M4.106 25.396a111.227 111.227 0 0 1 4.464-4.179 144.262 144.262 0 0 0-3.347-2.763 6.626 6.626 0 0 0-.036.04c-1.382 1.454-2.59 2.971-3.52 4.39a31.587 31.587 0 0 0 2.439 2.512zM16.36 22.88c-.93-1.417-2.136-2.932-3.516-4.384l-.104-.11a152.644 152.644 0 0 0-3.277 2.817l.354.305a104.44 104.44 0 0 1 4.192 3.804 31.411 31.411 0 0 0 2.35-2.432zm-7.348 6.333a33.899 33.899 0 0 0 4.296-3.266c.093-.081.184-.163.275-.244a110.19 110.19 0 0 0-4.566-4.104l-.465.415a117.646 117.646 0 0 0-4.025 3.766l.19.17a33.943 33.943 0 0 0 4.295 3.263zm8.884-8.302c-.254-1.907-.972-3.622-2.106-4.963a76.178 76.178 0 0 0-2.61 2.073l.076.08c1.366 1.436 2.556 2.934 3.477 4.338.43-.52.82-1.033 1.163-1.528zM2.488 15.636c.774.55 1.694 1.246 2.695 2.035a33.381 33.381 0 0 1 3.377-3.04 23.98 23.98 0 0 0-1.986-1.35c-1.66.405-3.032 1.231-4.086 2.355zm10.29 1.965a76.33 76.33 0 0 1 2.627-2.078c-1.035-1.063-2.364-1.845-3.96-2.238-.634.384-1.3.837-1.977 1.347a33.4 33.4 0 0 1 3.31 2.97zm-5.443-4.473c.544.34 1.107.728 1.68 1.157.569-.427 1.13-.814 1.672-1.154A10.602 10.602 0 0 0 9 13a10.6 10.6 0 0 0-1.665.128zm-1.703 4.899c1.076.857 2.23 1.809 3.385 2.793a142.856 142.856 0 0 1 3.32-2.854 34.2 34.2 0 0 0-3.323-2.986 34.161 34.161 0 0 0-3.382 3.047zm8.05 8.342a33.21 33.21 0 0 1-4.157 3.163c1.223.745 2.39 1.328 3.413 1.702a7.857 7.857 0 0 0 3.3-2.683c-.452-.618-1.221-1.452-2.25-2.456-.1.092-.203.183-.305.274zm-9.338.003l-.218-.194a2.383 2.383 0 0 1-.022.023c-.968.975-1.712 1.795-2.186 2.422.833 1.108 1.92 2 3.227 2.588 1.007-.374 2.154-.949 3.353-1.679a33.24 33.24 0 0 1-4.154-3.16zm1.484 5.111A9.57 9.57 0 0 0 9 32c1.196 0 2.276-.175 3.24-.498-.98-.385-2.082-.947-3.228-1.648-1.13.69-2.215 1.245-3.184 1.63zm8.584-5.779c.971.96 1.703 1.76 2.145 2.361a9.595 9.595 0 0 0 1.137-2.821 17.14 17.14 0 0 0-1.023-1.878c-.675.779-1.44 1.57-2.259 2.338zm3.564-3.977a23.142 23.142 0 0 1-.93 1.199c.31.5.583.985.815 1.447a12.454 12.454 0 0 0 .115-2.646zm-13.2-3.63a69.456 69.456 0 0 0-2.67-2.022C1.035 17.39.356 19.047.107 20.883c.349.505.746 1.028 1.187 1.56.92-1.405 2.112-2.906 3.48-4.345zm-3.42 5.275a17.088 17.088 0 0 0-1.022 1.88 9.585 9.585 0 0 0 1.259 2.906c.464-.616 1.184-1.416 2.115-2.362a32.02 32.02 0 0 1-2.352-2.424zm-.785-.949a20.674 20.674 0 0 1-.545-.724C.01 21.963 0 22.23 0 22.5c0 .651.053 1.287.156 1.902.234-.47.511-.962.826-1.47-.141-.17-.279-.34-.41-.509z" fill="#F38A1A"></path><path d="M1 8.608C3.754 9.505 5.526 13 5.526 13c1.742-1.162 6.135-1.088 7.942 0 0 0 1.774-3.495 4.532-4.392 0 0-1.788-1.214-3.888-.207 0 0 .726-3.215 1.703-4.362 0 0-2.459-.018-4.164 3.39 0 0-.536-5.733-2.151-7.429-1.613 1.696-2.16 7.429-2.16 7.429-1.703-3.408-4.158-3.39-4.158-3.39.976 1.147 1.7 4.362 1.7 4.362C2.785 7.394 1 8.608 1 8.608" fill="#47CCB0"></path></g></g></svg><svg width="449" height="120" viewBox="0 0 449 120" id="search" y="329"><title>957D93FF-BDCC-44A1-B0FF-CD2BAB102EEA</title><defs><rect id="b" width="391" height="60" rx="30"></rect><filter x="-50%" y="-50%" width="200%" height="200%" filterUnits="objectBoundingBox" id="a"><feOffset in="SourceAlpha" result="shadowOffsetOuter1"></feOffset><feGaussianBlur stdDeviation="15" in="shadowOffsetOuter1" result="shadowBlurOuter1"></feGaussianBlur><feColorMatrix values="0 0 0 0 0.57254902 0 0 0 0 0.596078431 0 0 0 0 0.62745098 0 0 0 0.1 0" in="shadowBlurOuter1"></feColorMatrix></filter></defs><g transform="translate(29 30)" fill="none" fill-rule="evenodd"><use fill="#000" filter="url(#a)" xlink:href="#b"></use><use fill="#FFF" xlink:href="#b"></use><text font-family="Roboto-Regular, Roboto" font-size="17" fill="#9298A0"><tspan x="32" y="36">Search for friends and places</tspan></text><g transform="translate(341 18)" fill="#B7BFCA"><path d="M18.077 10c0 4.295-3.553 7.79-7.922 7.79-4.367 0-7.921-3.495-7.921-7.79s3.554-7.79 7.921-7.79c4.369 0 7.922 3.495 7.922 7.79m5.593 12.112l-5.76-5.671A9.876 9.876 0 0 0 20.31 10c0-5.514-4.555-10-10.155-10C4.556 0 0 4.486 0 10c0 5.513 4.556 9.999 10.155 9.999 2.21 0 4.376-.72 6.134-2.034l5.807 5.714c.217.214.502.321.787.321.286 0 .57-.107.787-.32a1.09 1.09 0 0 0 .33-.784 1.09 1.09 0 0 0-.33-.784"></path></g></g></svg></svg>